<?xml version="1.0" standalone="no"?>
<!DOCTYPE svg PUBLIC "-//W3C//DTD SVG 20010904//EN"
 "http://www.w3.org/TR/2001/REC-SVG-20010904/DTD/svg10.dtd">
<svg version="1.0" xmlns="http://www.w3.org/2000/svg"
 width="1280.000000pt" height="1276.000000pt" viewBox="0 0 1280.000000 1276.000000"
 preserveAspectRatio="xMidYMid meet">
<metadata>
Created by potrace 1.15, written by Peter Selinger 2001-2017
</metadata>
<g transform="translate(0.000000,1276.000000) scale(0.100000,-0.100000)"
fill="#000000" stroke="none">
<path d="M6070 12754 c-36 -2 -146 -11 -245 -19 -2535 -217 -4714 -1945 -5509
-4370 -420 -1282 -420 -2688 0 -3970 105 -319 252 -671 401 -955 87 -165 251
-448 314 -542 105 -155 302 -434 313 -443 7 -5 63 -71 125 -145 323 -388 680
-728 1101 -1047 74 -57 169 -129 210 -160 212 -164 795 -471 1215 -641 83 -33
184 -77 225 -96 41 -20 76 -32 78 -27 2 5 42 -4 90 -20 150 -52 459 -135 657
-177 181 -39 496 -92 544 -92 12 0 36 -7 53 -16 18 -10 33 -12 37 -6 4 6 57 5
146 -4 312 -30 832 -28 1144 3 52 5 63 4 56 -7 -6 -10 -4 -11 11 -5 51 21 82
27 253 50 360 50 755 142 1116 260 16 6 17 5 5 -4 -8 -5 -12 -13 -8 -16 3 -3
47 14 98 40 50 25 142 65 203 89 188 73 613 263 776 347 259 133 454 254 560
350 53 47 143 121 201 164 191 144 392 319 619 539 123 119 228 216 232 216 4
0 38 34 74 76 37 42 96 102 132 133 67 58 241 273 381 472 258 367 517 845
682 1264 169 427 265 759 304 1055 8 63 29 210 46 325 59 403 94 853 84 1100
-12 324 -57 694 -124 1025 -33 168 -59 313 -56 323 10 40 -95 382 -216 701
-44 116 -101 270 -128 341 -65 176 -73 195 -82 195 -11 0 -211 401 -213 425
-2 40 -239 411 -410 640 -89 120 -332 419 -429 529 -84 95 -463 455 -610 580
-234 199 -465 370 -727 537 -195 124 -310 190 -545 307 -738 369 -1474 580
-2299 657 -161 15 -736 27 -885 19z m3875 -11680 c-16 -14 -68 -49 -115 -78
-88 -55 -198 -117 -167 -94 32 24 302 196 307 197 3 0 -8 -11 -25 -25z m-305
-189 c0 -2 -10 -9 -22 -15 -22 -11 -22 -10 -4 4 21 17 26 19 26 11z"/>
</g>
</svg>
